# xmcd
#
# Track frame offsets:
#	150
#	8311
#	18559
#	32649
#	48548
#	62875
#	75407
#	89497
#	101396
#	114103
#	127438
#	145717
#	164004
#	185828
#	196058
#	219932
#	231519
#
# Disc length: 3220 seconds
#
# Revision: 1
# Processed by: cddbd v1.5.2PL0 Copyright (c) Steve Scherf et al.
# Submitted via: audiograbber 1.83.01
#
DISCID=e40c9211
DTITLE=The Golden Gospel Singers - a cappella praise
DYEAR=1900
DGENRE=Gospel
TTITLE0=Ain't Got Time To Die
TTITLE1=Go Tell It On The Mountain
TTITLE2=Oh Freedom!
TTITLE3=Never Turn Back
TTITLE4=I've Been Buked
TTITLE5=Goin' Up Yonder
TTITLE6=Hush!
TTITLE7=Old Time Religion
TTITLE8=On My Way Home
TTITLE9=I Need A Church
TTITLE10=Amazing Grace
TTITLE11=It's All About You, Lord
TTITLE12=Calling You Lord
TTITLE13=Swing Low, Sweet Chariot
TTITLE14=Upper Room
TTITLE15=It's Gonna Rain
TTITLE16=Up To Glory
EXTD=
EXTT0=
EXTT1=
EXTT2=
EXTT3=
EXTT4=
EXTT5=
EXTT6=
EXTT7=
EXTT8=
EXTT9=
EXTT10=
EXTT11=
EXTT12=
EXTT13=
EXTT14=
EXTT15=
EXTT16=
PLAYORDER=
